<svg width="419" height="287" viewBox="0 0 419 287" fill="none" xmlns="http://www.w3.org/2000/svg">
<rect width="419" height="287" fill="white"/>
<rect x="74" y="111.228" width="29.2277" height="64.5446" fill="#004D51"/>
<rect width="29.2277" height="64.5446" transform="matrix(-1 0 0 1 178.733 111.228)" fill="#004D51"/>
<rect x="111.752" y="100.267" width="29.2277" height="86.4653" fill="#004D51"/>
<path d="M90.4406 193.431L74 175.772H103.228V187.342L90.4406 193.431Z" fill="#004D51"/>
<path d="M162.292 193.431L178.733 175.772H149.505V187.342L162.292 193.431Z" fill="#004D51"/>
<path d="M90.4406 94.1782L74 111.228H103.228V99.6584L90.4406 94.1782Z" fill="#004D51"/>
<path d="M162.292 94.1782L178.733 111.228H149.505V99.6584L162.292 94.1782Z" fill="#004D51"/>
<path d="M126.094 82L141.044 100.267H126.094H111.752L126.094 82Z" fill="#004D51"/>
<path d="M126.094 205L141.044 186.733H126.094H111.752L126.094 205Z" fill="#004D51"/>
<path d="M219.562 123.172V164H214.402V123.172H219.562ZM233.33 141.539V145.969H218.581V141.539H233.33ZM235.658 123.172V127.602H218.581V123.172H235.658ZM250.52 126.789L239.359 164H234.087L247.239 123.172H250.548L250.52 126.789ZM259.549 164L248.389 126.789L248.332 123.172H251.669L264.821 164H259.549ZM259.549 148.886V153.316H239.864V148.886H259.549ZM270.457 123.172H281.87C284.524 123.172 286.749 123.639 288.544 124.574C290.357 125.509 291.722 126.892 292.638 128.724C293.572 130.537 294.04 132.771 294.04 135.426C294.04 137.295 293.731 139.006 293.114 140.557C292.497 142.09 291.6 143.399 290.422 144.483C289.245 145.549 287.815 146.343 286.132 146.867L284.73 147.456H274.551L274.495 143.053H281.814C283.384 143.053 284.693 142.717 285.74 142.044C286.786 141.352 287.572 140.427 288.095 139.268C288.618 138.109 288.88 136.828 288.88 135.426C288.88 133.856 288.646 132.482 288.179 131.304C287.712 130.126 286.964 129.219 285.936 128.584C284.926 127.93 283.571 127.602 281.87 127.602H275.617V164H270.457V123.172ZM290.058 164L281.926 145.493L287.282 145.465L295.582 163.664V164H290.058ZM304.695 123.172L312.435 138.819L320.118 123.172H326.119L315.491 143.39L326.343 164H320.286L312.435 148.045L304.555 164H298.47L309.35 143.39L298.695 123.172H304.695ZM358.451 140.053V147.147C358.451 150.026 358.133 152.559 357.497 154.746C356.88 156.915 355.974 158.728 354.777 160.186C353.581 161.645 352.141 162.738 350.459 163.467C348.776 164.196 346.879 164.561 344.766 164.561C342.729 164.561 340.869 164.196 339.186 163.467C337.504 162.738 336.055 161.645 334.84 160.186C333.625 158.728 332.681 156.915 332.008 154.746C331.353 152.559 331.026 150.026 331.026 147.147V140.053C331.026 137.174 331.353 134.65 332.008 132.482C332.662 130.294 333.597 128.472 334.812 127.014C336.027 125.555 337.476 124.462 339.158 123.733C340.841 122.985 342.701 122.611 344.738 122.611C346.851 122.611 348.748 122.985 350.431 123.733C352.132 124.462 353.571 125.555 354.749 127.014C355.946 128.472 356.862 130.294 357.497 132.482C358.133 134.65 358.451 137.174 358.451 140.053ZM353.347 147.147V139.997C353.347 137.753 353.16 135.828 352.786 134.22C352.412 132.594 351.861 131.266 351.132 130.238C350.403 129.21 349.505 128.453 348.44 127.967C347.374 127.462 346.14 127.21 344.738 127.21C343.411 127.21 342.215 127.462 341.149 127.967C340.102 128.453 339.205 129.21 338.457 130.238C337.709 131.266 337.13 132.594 336.719 134.22C336.326 135.828 336.13 137.753 336.13 139.997V147.147C336.13 149.409 336.326 151.353 336.719 152.98C337.13 154.587 337.709 155.915 338.457 156.962C339.224 157.99 340.14 158.756 341.205 159.261C342.271 159.747 343.458 159.99 344.766 159.99C346.169 159.99 347.402 159.747 348.468 159.261C349.552 158.756 350.449 157.99 351.16 156.962C351.889 155.915 352.431 154.587 352.786 152.98C353.16 151.353 353.347 149.409 353.347 147.147ZM375.696 164H368.742L368.798 159.598H375.696C378.145 159.598 380.136 159.13 381.669 158.195C383.202 157.242 384.333 155.84 385.062 153.989C385.791 152.12 386.155 149.811 386.155 147.063V140.081C386.155 137.912 385.95 136.043 385.539 134.473C385.127 132.902 384.51 131.612 383.688 130.603C382.865 129.593 381.828 128.846 380.575 128.36C379.323 127.855 377.855 127.602 376.173 127.602H368.602V123.172H376.173C378.472 123.172 380.547 123.536 382.398 124.265C384.249 124.976 385.838 126.051 387.165 127.49C388.492 128.911 389.502 130.678 390.193 132.79C390.904 134.902 391.259 137.351 391.259 140.137V147.063C391.259 149.848 390.904 152.297 390.193 154.41C389.502 156.522 388.483 158.289 387.137 159.71C385.791 161.13 384.155 162.205 382.23 162.934C380.323 163.645 378.145 164 375.696 164ZM371.602 123.172V164H366.442V123.172H371.602Z" fill="black"/>
</svg>
